# xmcd
#
# Track frame offsets: 
#        150
#        9062
#        19844
#        28335
#        39651
#        51800
#        64568
#        76976
#        87956
#        103098
#        115235
#        129575
#        139185
#        150149
#        163768
#        176567
#        190400
#        204106
#        216914
#        228594
#        239144
#        251646
#        262711
#        274106
#        287203
#
# Disc length: 4044 seconds
#
# Revision: 1
# Processed by: cddbd v1.5.2PL0 Copyright (c) Steve Scherf et al.
# Submitted via: ExactAudioCopyFreeDBPlugin 1.0
#
DISCID=5b0fca19
DTITLE=Various Artist - The Very Best of Burlesque [Not Now Music]
DYEAR=2004
DGENRE=Burlesque
TTITLE0=David Rose - The Stripper
TTITLE1=The Viscounts - Harlem Nocturne
TTITLE2=Ray Anthony and His Orchestra - Peter Gunn
TTITLE3=Red Prysock - Purple Wall
TTITLE4=Sil Austin - Slow Walk
TTITLE5=Louis Prima - Night Train
TTITLE6=Little Willie John - Fever
TTITLE7=Roy Montrell - (Every Time I Hear That) Mellow Saxophone
TTITLE8=Buddy Johnson and His Orchestra - Dr. Jive Jives
TTITLE9=Willis "Gator" Jackson - Gator's Groove
TTITLE10=Sam Butera - Street Scene
TTITLE11=Frankie Lee Sims - She Likes to Boogie Real Low
TTITLE12=Billy Gayles - I'm Tore Up
TTITLE13=Louis Jordan - Hog Wash
TTITLE14=Roosevelt Sykes - Satellite Baby
TTITLE15=Earl Bostic - Cherokee
TTITLE16=Dizzy Gillespie - Algo Bueno (Woody 'n' You)
TTITLE17=Tommy Ridgley - Jam Up
TTITLE18=Tiny Bradshaw and His Orchestra - Soft
TTITLE19=Dale Hawkins - Susie Q
TTITLE20=Big Jay McNeely - Strip Tease Swing
TTITLE21=Link Wray - Rumble
TTITLE22=Perez Prado - Patricia
TTITLE23=Ruth Brown - Teardrops from My Eyes
TTITLE24=Cab Calloway - Minnie the Moocher
EXTD=
EXTT0=
EXTT1=
EXTT2=
EXTT3=
EXTT4=
EXTT5=
EXTT6=
EXTT7=
EXTT8=
EXTT9=
EXTT10=
EXTT11=
EXTT12=
EXTT13=
EXTT14=
EXTT15=
EXTT16=
EXTT17=
EXTT18=
EXTT19=
EXTT20=
EXTT21=
EXTT22=
EXTT23=
EXTT24=
PLAYORDER=
